<?xml version="1.0" encoding="UTF-8"?>
<svg version="1.1" xmlns="http://www.w3.org/2000/svg" width="1024" height="1024">
<path d="M0 0 C4.1786724 1.89305084 6.79585072 4.75104717 9.8125 8.125 C10.61361206 9.007323 10.61361206 9.007323 11.4309082 9.9074707 C14.7616307 13.58608103 18.05250624 17.29914159 21.30078125 21.05078125 C24.81404669 25.08094091 28.41683056 29.03206068 32 33 C40.56860207 42.48872041 40.56860207 42.48872041 44.4375 46.9375 C48.09057956 51.13303221 51.84505549 55.23373553 55.59375 59.34375 C58.15148771 62.16722669 60.65769969 65.03056002 63.15625 67.90625 C65.40876457 70.46419027 67.70317092 72.9817898 70 75.5 C73.43264761 79.26350521 76.8155501 83.06129351 80.15625 86.90625 C83.25760235 90.4281247 86.43513333 93.88077022 89.59765625 97.34765625 C91.56941844 99.52460996 93.51365337 101.71838674 95.4375 103.9375 C98.3988351 107.3468858 101.44152486 110.6779431 104.5 114 C108.14414329 117.95862186 111.73913717 121.9517676 115.265625 126.015625 C118.79499465 130.05373262 122.40570631 134.01974189 126 138 C134.56860207 147.48872041 134.56860207 147.48872041 138.4375 151.9375 C142.09178862 156.13442081 145.84744973 160.2365276 149.59765625 164.34765625 C151.56941844 166.52460996 153.51365337 168.71838674 155.4375 170.9375 C158.3988351 174.3468858 161.44152486 177.6779431 164.5 181 C168.14414329 184.95862186 171.73913717 188.9517676 175.265625 193.015625 C178.79499465 197.05373262 182.40570631 201.01974189 186 205 C194.56860207 214.48872041 194.56860207 214.48872041 198.4375 218.9375 C202.09057956 223.13303221 205.84505549 227.23373553 209.59375 231.34375 C212.15148771 234.16722669 214.65769969 237.03056002 217.15625 239.90625 C220.25760235 243.4281247 223.43513333 246.88077022 226.59765625 250.34765625 C228.56941844 252.52460996 230.51365337 254.71838674 232.4375 256.9375 C235.3988351 260.3468858 238.44152486 263.6779431 241.5 267 C245.14414329 270.95862186 248.73913717 274.9517676 252.265625 279.015625 C255.79499465 283.05373262 259.40570631 287.01974189 263 291 C271.56860207 300.48872041 271.56860207 300.48872041 275.4375 304.9375 C279.09057956 309.13303221 282.84505549 313.23373553 286.59375 317.34375 C289.15148771 320.16722669 291.65769969 323.03056002 294.15625 325.90625 C297.24538286 329.41424834 300.40862566 332.85461887 303.56640625 336.30078125 C306.30835068 339.34200693 308.93941051 342.46379814 311.52734375 345.63671875 C313.03244936 347.3396652 313.03244936 347.3396652 316 347 C317.56889808 345.61111166 317.56889808 345.61111166 319.0625 343.6875 C321.96807919 340.21677644 324.94169278 336.83760468 328 333.5 C330.86471815 330.35916444 333.71185902 327.20899244 336.5 324 C340.13065708 319.82131921 343.86718576 315.74183696 347.59765625 311.65234375 C349.56941844 309.47539004 351.51365337 307.28161326 353.4375 305.0625 C356.3988351 301.6531142 359.44152486 298.3220569 362.5 295 C366.14414329 291.04137814 369.73913717 287.0482324 373.265625 282.984375 C377.55679952 278.0746528 381.95802108 273.26125182 386.328125 268.421875 C389.72344938 264.6569915 393.11058342 260.88806449 396.4375 257.0625 C400.09057956 252.86696779 403.84505549 248.76626447 407.59375 244.65625 C409.58648953 242.45647259 411.5533814 240.24044782 413.5 238 C417.12944941 233.82270917 420.8647902 229.74462761 424.59375 225.65625 C426.58648953 223.45647259 428.5533814 221.24044782 430.5 219 C434.12944941 214.82270917 437.8647902 210.74462761 441.59375 206.65625 C443.58648953 204.45647259 445.5533814 202.24044782 447.5 200 C451.13065708 195.82131921 454.86718576 191.74183696 458.59765625 187.65234375 C460.56941844 185.47539004 462.51365337 183.28161326 464.4375 181.0625 C467.3988351 177.6531142 470.44152486 174.3220569 473.5 171 C477.14414329 167.04137814 480.73913717 163.0482324 484.265625 158.984375 C488.55679952 154.0746528 492.95802108 149.26125182 497.328125 144.421875 C500.72344938 140.6569915 504.11058342 136.88806449 507.4375 133.0625 C511.09057956 128.86696779 514.84505549 124.76626447 518.59375 120.65625 C520.58648953 118.45647259 522.5533814 116.24044782 524.5 114 C528.12944941 109.82270917 531.8647902 105.74462761 535.59375 101.65625 C537.58648953 99.45647259 539.5533814 97.24044782 541.5 95 C545.13065708 90.82131921 548.86718576 86.74183696 552.59765625 82.65234375 C554.56941844 80.47539004 556.51365337 78.28161326 558.4375 76.0625 C561.3988351 72.6531142 564.44152486 69.3220569 567.5 66 C571.14414329 62.04137814 574.73913717 58.0482324 578.265625 53.984375 C582.55679952 49.0746528 586.95802108 44.26125182 591.328125 39.421875 C594.72344938 35.6569915 598.11058342 31.88806449 601.4375 28.0625 C604.24822525 24.83440488 607.115799 21.66261557 610 18.5 C617.38492832 10.4441454 617.38492832 10.4441454 624.3125 2 C624.869375 1.34 625.42625 0.68 626 0 C626.66 0 627.32 0 628 0 C628.25716554 28.99847795 628.45103787 57.99678456 628.56993389 86.99617386 C628.58115186 89.67876532 628.5926064 92.36135566 628.60424805 95.04394531 C628.60857617 96.04407029 628.60857617 96.04407029 628.61299173 97.06439981 C628.66078126 107.84280367 628.74746836 118.62055835 628.84868076 129.39857784 C628.95176004 140.46820453 629.01186806 151.53747426 629.03497344 162.6075561 C629.04929249 168.82146868 629.08284972 175.03391185 629.16303062 181.2473526 C629.23796227 187.10170778 629.26067505 192.95399529 629.24418449 198.80878448 C629.24719902 200.95178485 629.26892619 203.09485772 629.31126022 205.23744202 C629.64666679 223.09596252 629.64666679 223.09596252 624.14533216 229.57925296 C621.89589747 231.88298957 619.47629527 233.94526823 617 236 C615.82499218 237.2864474 614.6705835 238.59297732 613.5625 239.9375 C610.45035705 243.52958789 607.23124165 247.01548282 604 250.5 C600.16954924 254.63143154 596.38737346 258.79109651 592.69921875 263.05078125 C589.18593962 267.08095661 585.58253666 271.03146612 582 275 C580.49971321 276.66640851 578.99971128 278.33307353 577.5 280 C532.5 330 532.5 330 530.27734375 332.46484375 C528.67993473 334.24309153 527.08936356 336.02749433 525.50390625 337.81640625 C524.69824219 338.72261719 523.89257812 339.62882812 523.0625 340.5625 C522.33160156 341.38878906 521.60070312 342.21507812 520.84765625 343.06640625 C519 345 519 345 517 346 C516.97716446 345.37154175 516.95432892 344.7430835 516.93080139 344.09558105 C516.68983473 337.47524885 516.44593763 330.85502895 516.20043945 324.23486328 C516.10953879 321.77362716 516.01935226 319.31236455 515.92993164 316.85107422 C515.44640359 303.55540354 514.95035881 290.27176721 514 277 C510.72451494 280.72063471 507.46180407 284.45070194 504.25 288.2265625 C498.92132139 294.48756159 493.52643678 300.65204773 487.93017578 306.67529297 C485.03251776 309.81503117 482.29653427 313.04166489 479.625 316.375 C475.01428361 322.10522487 470.02243362 327.43085078 464.99609375 332.79296875 C460.61883286 337.4639332 456.4485711 342.29747541 452.30078125 347.171875 C451.28418244 348.36486315 450.26724412 349.55756205 449.25 350.75 C448.477771 351.65552612 448.477771 351.65552612 447.68994141 352.5793457 C443.86787748 357.03960984 439.92778734 361.37267114 435.93017578 365.67529297 C433.03251776 368.81503117 430.29653427 372.04166489 427.625 375.375 C423.57333783 380.41416406 419.22645384 385.10465771 414.79736328 389.80810547 C411.55451548 393.27061478 408.46570521 396.79286848 405.5 400.5 C401.45920142 405.54913095 397.12844024 410.26781751 392.69140625 414.96679688 C389.00385033 418.87797933 385.46428206 422.8897034 382 427 C383.59927069 430.35578909 385.40875464 432.75633415 387.9375 435.5 C388.74316406 436.37914062 389.54882812 437.25828125 390.37890625 438.1640625 C391.24386719 439.09992188 392.10882812 440.03578125 393 441 C394.33492991 442.45878939 395.66985162 443.91758644 397.00415039 445.37695312 C398.86431568 447.4097179 400.72859382 449.43869058 402.59277344 451.46777344 C404.89708552 453.97677112 407.19841091 456.48850468 409.5 459 C410.41665192 460.00001352 411.3333186 461.00001351 412.25 462 C421.41666667 472 430.58333333 482 439.75 492 C440.20463623 492.49580566 440.65927246 492.99161133 441.12768555 493.50244141 C442.03605042 494.49370811 442.94377505 495.48556193 443.85083008 496.47802734 C446.26434692 499.11703748 448.69102345 501.74231839 451.13671875 504.3515625 C451.6471875 504.89941406 452.15765625 505.44726562 452.68359375 506.01171875 C453.66785563 507.06756331 454.65599949 508.11980561 455.6484375 509.16796875 C459 512.7750756 459 512.7750756 459 515 C459.66 515 460.32 515 461 515 C461.21269531 514.46890625 461.42539062 513.9378125 461.64453125 513.390625 C463.52247598 510.07851498 466.08041823 507.49067632 468.6875 504.75 C469.78201327 503.58274649 470.87576745 502.41478071 471.96875 501.24609375 C472.75765625 500.40473877 472.75765625 500.40473877 473.5625 499.54638672 C475.86621497 497.0681716 478.07932331 494.51538061 480.29296875 491.95703125 C482.33633431 489.6144085 484.41680859 487.30726578 486.5 485 C489.18983431 482.01937279 491.86310364 479.02754767 494.5 476 C497.89253093 472.10487189 501.35194201 468.27217237 504.8125 464.4375 C506.72554149 462.30582519 508.61887612 460.1598089 510.5 458 C513.89253093 454.10487189 517.35194201 450.27217237 520.8125 446.4375 C523.30061687 443.66502692 525.75067464 440.86155151 528.1953125 438.05078125 C530.22958141 435.73911203 532.3022231 433.4646857 534.375 431.1875 C537.57652433 427.64839998 540.63146063 424.02896894 543.625 420.3125 C546.63533603 416.58864142 549.74328617 413.19165035 553.1875 409.875 C555.45048573 407.53398027 557.45948323 405.03685869 559.5 402.5 C562.04493932 399.33602139 564.5752099 396.31646455 567.5 393.5 C570.26489079 390.82958156 572.66368565 388.00404008 575.0625 385 C579.45366333 379.53929088 584.17118414 374.44674023 588.97558594 369.34887695 C592.5167292 365.59135191 595.99352473 361.79971057 599.36328125 357.88671875 C601.37873772 355.56341213 603.43848462 353.28251535 605.5 351 C608.18983431 348.01937279 610.86310364 345.02754767 613.5 342 C616.25744442 338.84217723 619.02645145 335.69513833 621.8125 332.5625 C622.56144531 331.71816406 623.31039062 330.87382812 624.08203125 330.00390625 C626 328 626 328 628 327 C628.18703358 346.1584585 628.32802915 365.31673129 628.41449738 384.475914 C628.45571672 393.37227429 628.51189404 402.26806674 628.60351562 411.1640625 C628.68335236 418.91951715 628.73488891 426.6745605 628.75270796 434.43041468 C628.76312158 438.53584885 628.78752326 442.64010659 628.84584045 446.74516296 C628.90034165 450.6131195 628.91685413 454.47942085 628.90486145 458.34772491 C628.90705366 459.76350671 628.92285351 461.17934659 628.9536438 462.59479523 C629.17461913 473.28174901 629.17461913 473.28174901 626.23979187 477.57485962 C624.25542529 479.56782689 622.22013333 481.28010213 620 483 C618.54964225 484.70100682 617.12723549 486.42676601 615.75 488.1875 C612.32268178 492.45982944 608.74290312 496.50768793 605 500.5 C601.35093375 504.39557841 597.84299907 508.33336348 594.5 512.5 C590.6794151 517.26188842 586.60932197 521.71435594 582.43920898 526.16625977 C579.34219916 529.491548 576.40378316 532.88719939 573.5625 536.4375 C569.53553256 541.45841948 565.20785297 546.12421817 560.79931641 550.80615234 C556.75731413 555.12226878 553.00404583 559.60503631 549.30859375 564.22265625 C546.16198293 568.00817282 542.80312334 571.57505162 539.43896484 575.16650391 C536.34205297 578.49172323 533.40371008 581.88729071 530.5625 585.4375 C526.53553256 590.45841948 522.20785297 595.12421817 517.79931641 599.80615234 C513.75731413 604.12226878 510.00404583 608.60503631 506.30859375 613.22265625 C503.64720542 616.42442799 500.84537754 619.46234918 498 622.5 C494.35111551 626.39576281 490.84301562 630.33334284 487.5 634.5 C483.68688802 639.25257435 479.63127003 643.70365029 475.45898438 648.13769531 C471.33917908 652.54572833 467.5991436 657.15415271 463.9375 661.953125 C461.90744277 664.09778223 460.88699029 664.66490291 458 665 C449.51480122 655.61048298 449.51480122 655.61048298 445.5625 651.0625 C441.90821138 646.86557919 438.15255027 642.7634724 434.40234375 638.65234375 C432.43058156 636.47539004 430.48634663 634.28161326 428.5625 632.0625 C425.6011649 628.6531142 422.55847514 625.3220569 419.5 622 C415.85585671 618.04137814 412.26086283 614.0482324 408.734375 609.984375 C405.20500535 605.94626738 401.59429369 601.98025811 398 598 C389.43139793 588.51127959 389.43139793 588.51127959 385.5625 584.0625 C381.90942044 579.86696779 378.15494451 575.76626447 374.40625 571.65625 C371.84851229 568.83277331 369.34230031 565.96943998 366.84375 563.09375 C363.74239765 559.5718753 360.56486667 556.11922978 357.40234375 552.65234375 C355.43058156 550.47539004 353.48634663 548.28161326 351.5625 546.0625 C348.6011649 542.6531142 345.55847514 539.3220569 342.5 536 C338.85834719 532.04408354 335.26500564 528.05438449 331.7421875 523.9921875 C329.68499601 521.63979365 327.59403085 519.31965034 325.5 517 C321.62300718 512.70405255 317.79497102 508.36848754 314 504 C310.10429963 507.84501282 306.34439223 511.79712337 302.625 515.8125 C302.0484668 516.43415039 301.47193359 517.05580078 300.87792969 517.69628906 C297.41331519 521.44261135 293.99997832 525.22416303 290.6640625 529.0859375 C287.16707067 533.108299 283.57140635 537.04379566 280 541 C278.49971321 542.66640851 276.99971128 544.33307353 275.5 546 C273.2282871 548.52500493 270.95564586 551.04913304 268.6796875 553.5703125 C265.28127068 557.33737115 261.8918339 561.10915586 258.5625 564.9375 C254.90942044 569.13303221 251.15494451 573.23373553 247.40625 577.34375 C245.41351047 579.54352741 243.4466186 581.75955218 241.5 584 C237.87055059 588.17729083 234.1352098 592.25537239 230.40625 596.34375 C228.41351047 598.54352741 226.4466186 600.75955218 224.5 603 C220.86934292 607.17868079 217.13281424 611.25816304 213.40234375 615.34765625 C211.43058156 617.52460996 209.48634663 619.71838674 207.5625 621.9375 C204.6011649 625.3468858 201.55847514 628.6779431 198.5 632 C194.85834719 635.95591646 191.26500564 639.94561551 187.7421875 644.0078125 C184.9369315 647.21561644 182.07156391 650.36893882 179.2109375 653.52734375 C176.5813659 656.46818973 174.03266787 659.47286006 171.5078125 662.50390625 C170 664 170 664 167 665 C166.47792969 664.34515625 165.95585937 663.6903125 165.41796875 663.015625 C161.25620927 657.85533478 157.01533004 652.85076815 152.5 648 C149.048345 644.29140833 145.73477822 640.51494067 142.5625 636.5625 C138.71825361 631.78298078 134.62910955 627.30679656 130.43945312 622.83398438 C127.34234535 619.50862723 124.40385624 616.11289193 121.5625 612.5625 C118.05356861 608.18748028 114.34155495 604.07979091 110.5 600 C105.8738141 595.08691885 101.52729313 590.04878279 97.30859375 584.77734375 C94.64720542 581.57557201 91.84537754 578.53765082 89 575.5 C85.35111551 571.60423719 81.84301562 567.66665716 78.5 563.5 C74.16072656 558.09563218 69.49603585 553.05044877 64.7734375 547.984375 C60.46894486 543.36646239 56.35687595 538.59238393 52.26171875 533.7890625 C51.23716908 532.58837959 50.21242354 531.38786379 49.1875 530.1875 C48.67018311 529.58131836 48.15286621 528.97513672 47.61987305 528.35058594 C44.41497771 524.6092918 41.14790722 520.93884617 37.8125 517.3125 C34.62263156 513.83863691 31.57951106 510.30089975 28.625 506.625 C24.24521607 501.19686353 19.55479218 496.11265363 14.80078125 491.015625 C11.44727152 487.41848902 8.1857388 483.74655346 5 480 C3.73063347 478.89541946 3.73063347 478.89541946 2.43562317 477.76852417 C-1.71660428 472.72007833 -0.65184813 466.0103479 -0.56762695 459.82470703 C-0.56621553 458.37556507 -0.5670103 456.92641955 -0.56983948 455.47727966 C-0.57127141 451.55389115 -0.54191872 447.63127024 -0.50696969 443.70805979 C-0.47566849 439.60414958 -0.4727725 435.50022088 -0.46684265 431.39620972 C-0.4513152 423.62951858 -0.41030182 415.86318022 -0.3600952 408.09664428 C-0.30416737 399.25270882 -0.27670662 390.40875631 -0.25161803 381.56468797 C-0.19938483 363.37625879 -0.11146411 345.18815778 0 327 C3.12829824 328.48273537 4.96717109 329.82464072 7.1875 332.5 C9.90842568 335.71616911 12.67153327 338.87760401 15.5 342 C18.76390848 345.61676345 21.98790949 349.26389608 25.1875 352.9375 C27.27211164 355.30964429 29.38428644 357.65556065 31.5 360 C34.76390848 363.61676345 37.98790949 367.26389608 41.1875 370.9375 C43.27211164 373.30964429 45.38428644 375.65556065 47.5 378 C50.76390848 381.61676345 53.98790949 385.26389608 57.1875 388.9375 C59.27211164 391.30964429 61.38428644 393.65556065 63.5 396 C66.76390848 399.61676345 69.98790949 403.26389608 73.1875 406.9375 C75.27211164 409.30964429 77.38428644 411.65556065 79.5 414 C82.76390848 417.61676345 85.98790949 421.26389608 89.1875 424.9375 C91.27211164 427.30964429 93.38428644 429.65556065 95.5 432 C98.76390848 435.61676345 101.98790949 439.26389608 105.1875 442.9375 C107.27211164 445.30964429 109.38428644 447.65556065 111.5 450 C114.76390848 453.61676345 117.98790949 457.26389608 121.1875 460.9375 C123.27211164 463.30964429 125.38428644 465.65556065 127.5 468 C130.76390848 471.61676345 133.98790949 475.26389608 137.1875 478.9375 C139.27211164 481.30964429 141.38428644 483.65556065 143.5 486 C146.75899377 489.61131742 149.97928181 493.2518847 153.171875 496.921875 C156.07071731 500.21714019 159.02907691 503.45849702 161.984375 506.703125 C163.77019535 508.73812959 165.41203295 510.80900749 167 513 C170.99212123 511.43665182 173.41597694 508.63942868 176.1875 505.5 C176.67162354 504.96173584 177.15574707 504.42347168 177.65454102 503.86889648 C179.10843326 502.25067405 180.55460716 500.62581284 182 499 C183.47823343 497.35332841 184.95733119 495.70743212 186.4375 494.0625 C187.16066406 493.25683594 187.88382813 492.45117188 188.62890625 491.62109375 C192.37301723 487.48221654 196.16728802 483.3900209 199.95703125 479.29296875 C202.83394762 476.18217159 205.70049617 473.06201655 208.5625 469.9375 C209.01222168 469.44652832 209.46194336 468.95555664 209.92529297 468.44970703 C210.83062602 467.46115485 211.73589963 466.47254823 212.64111328 465.48388672 C214.92642497 462.98835592 217.21331413 460.49427154 219.5 458 C219.95310547 457.50564453 220.40621094 457.01128906 220.87304688 456.50195312 C223.17637558 453.98893305 225.48025376 451.47642051 227.78515625 448.96484375 C233.87561897 442.32691172 239.9460013 435.67121766 246 429 C241.89758285 419.86949208 233.59535807 412.4121262 226.79956055 405.19384766 C222.77760062 400.90039517 219.05064955 396.43831194 215.375 391.84375 C212.53535544 388.44364928 209.53611901 385.22413555 206.5 382 C202.67792109 377.94123272 198.98562553 373.85703191 195.5 369.5 C190.93958074 363.80368295 185.98265337 358.52680934 180.99609375 353.20703125 C176.61883286 348.5360668 172.4485711 343.70252459 168.30078125 338.828125 C167.28418244 337.63513685 166.26724412 336.44243795 165.25 335.25 C164.477771 334.34447388 164.477771 334.34447388 163.68994141 333.4206543 C160.3089801 329.47514717 156.84897957 325.61880634 153.3125 321.8125 C149.94416553 318.18716792 146.7207798 314.48767607 143.625 310.625 C139.0229105 304.90549668 134.04174533 299.58906496 129.0234375 294.23828125 C123.80210271 288.66746168 118.88419126 282.8650004 114 277 C112.34382658 310.9932531 112.34382658 310.9932531 111 345 C107.16062519 343.22969183 105.00209728 341.05748952 102.1875 337.875 C101.74591553 337.3792749 101.30433105 336.8835498 100.84936523 336.37280273 C97.84405139 332.99120938 94.87681819 329.57567484 91.91015625 326.16015625 C89.00225094 322.8716662 86.02046641 319.6512812 83.04711914 316.42211914 C79.93400701 313.03537381 76.88747918 309.60093751 73.875 306.125 C71.45449925 303.38176582 68.97799358 300.69115432 66.5 298 C62.89987244 294.09018405 59.35582395 290.14133532 55.875 286.125 C53.45449925 283.38176582 50.97799358 280.69115432 48.5 278 C44.89987244 274.09018405 41.35582395 270.14133532 37.875 266.125 C35.45449892 263.38176544 32.9779759 260.69117094 30.5 258 C26.87909866 254.06715159 23.31041075 250.09785988 19.80859375 246.05859375 C16.73497631 242.56011343 13.57982424 239.1355936 10.44140625 235.6953125 C7.68224519 232.64919869 4.97020749 229.56565099 2.27734375 226.4609375 C1.54167701 225.61953273 0.79030613 224.79030613 0 224 C-0.0979454 221.11743397 -0.12992191 218.25882417 -0.12025452 215.37583923 C-0.12110894 214.46026908 -0.12196337 213.54469893 -0.12284368 212.60138422 C-0.12450129 209.50889494 -0.11897254 206.41645896 -0.11352539 203.32397461 C-0.11324355 201.11695863 -0.11340118 198.90994256 -0.1139679 196.70292664 C-0.11425601 190.69077275 -0.10835711 184.67863863 -0.10139394 178.66648936 C-0.09516263 172.39106899 -0.09455678 166.11564821 -0.09336853 159.84022522 C-0.09060884 149.30062523 -0.08435333 138.76103175 -0.07543945 128.22143555 C-0.06626602 117.36368852 -0.05918485 106.50594347 -0.05493164 95.64819336 C-0.05453756 94.64495693 -0.05453756 94.64495693 -0.05413551 93.6214531 C-0.05283051 90.26629178 -0.05156679 86.91113046 -0.05032361 83.55596912 C-0.03985772 55.70397434 -0.022257 27.85198768 0 0 Z " fill="#FE3838" transform="translate(198,124)"/>
<path d="M0 0 C3.32524542 1.10841514 3.74479055 1.65163163 5.6796875 4.40234375 C6.18943115 5.1183374 6.6991748 5.83433105 7.22436523 6.57202148 C7.76907471 7.35262939 8.31378418 8.1332373 8.875 8.9375 C10.0506184 10.5938656 11.2264042 12.25011239 12.40234375 13.90625 C13.00159668 14.75574219 13.60084961 15.60523438 14.21826172 16.48046875 C16.93217845 20.31818055 19.683518 24.12848685 22.4375 27.9375 C23.23679932 29.04532837 23.23679932 29.04532837 24.05224609 30.17553711 C28.00143272 35.64186862 31.99308636 41.07588563 36 46.5 C42.19011119 54.87948458 48.30474309 63.31107363 54.39111328 71.76611328 C57.0901213 75.51359786 59.79540286 79.25654829 62.5 83 C63.57294041 84.48565994 64.64585703 85.97133706 65.71875 87.45703125 C67.98908315 90.60062206 70.26000348 93.74378778 72.53125 96.88671875 C73.40233398 98.09231445 73.40233398 98.09231445 74.29101562 99.32226562 C75.39372692 100.84841806 76.49658099 102.37446735 77.59960938 103.90039062 C80.74715707 108.25698353 83.87984031 112.62374661 87 117 C84.13827562 123.67233632 77.8121498 128.51057682 72.375 133.125 C68.19617596 136.69965671 64.36662176 140.59558597 60.5 144.5 C56.17672436 148.86532574 51.85323144 153.10613981 47.15234375 157.06640625 C43.9764732 159.9195023 41.00240448 162.96623062 38 166 C30.71889798 173.35716473 30.71889798 173.35716473 27.0625 176.4375 C22.26205702 180.49143781 17.9385252 185.03740249 13.52148438 189.49804688 C9.17267787 193.87323643 4.73396617 198.03892626 0 202 C-5.02253998 197.75065828 -9.89816721 193.38499797 -14.6875 188.875 C-15.4086499 188.19703369 -16.1297998 187.51906738 -16.87280273 186.82055664 C-23.73727487 180.32472531 -30.41463244 173.64689895 -37.04760742 166.91552734 C-40.55182275 163.373786 -44.04930682 159.89593281 -47.83984375 156.66015625 C-54.10318213 151.28277882 -59.7864763 145.26814345 -65.58203125 139.39746094 C-72.71729315 132.17809855 -79.81725733 125.04733395 -88 119 C-86.65283182 116.13746643 -85.12226944 113.65713196 -83.234375 111.12109375 C-82.68152832 110.3748877 -82.12868164 109.62868164 -81.55908203 108.85986328 C-80.96208496 108.0604834 -80.36508789 107.26110352 -79.75 106.4375 C-78.47121176 104.71494946 -77.19256988 102.99229026 -75.9140625 101.26953125 C-75.26083008 100.39119629 -74.60759766 99.51286133 -73.93457031 98.60791016 C-72.12252262 96.16516742 -70.32046207 93.71552648 -68.5234375 91.26171875 C-61.76899407 82.0418452 -54.9078417 72.91252131 -47.96142578 63.83642578 C-43.57954665 58.10139701 -39.26478423 52.32253229 -35 46.5 C-29.37424225 38.82112236 -23.63721089 31.2331189 -17.85546875 23.67114258 C-11.85249575 15.81877625 -5.91427506 7.91930392 0 0 Z " fill="#FFFFFF" transform="translate(512,699)"/>
<path d="M0 0 C5.20763578 4.3975591 10.23207117 8.94591093 15.1875 13.625 C16.30016235 14.67288696 16.30016235 14.67288696 17.43530273 15.74194336 C22.39290213 20.42962484 27.24773934 25.20448429 32.04052734 30.05981445 C34.5488963 32.58942608 37.09328993 35.01162994 39.8125 37.3125 C43.93704028 40.81446816 47.69570826 44.65865197 51.5 48.5 C57.08544409 54.1750027 57.08544409 54.1750027 63 59.5 C65.63818302 61.76666566 68.15427387 64.09915435 70.6015625 66.5703125 C71.5915625 67.56514648 71.5915625 67.56514648 72.6015625 68.58007812 C73.91945328 69.91196196 75.23469816 71.24647079 76.546875 72.58398438 C80.20733847 76.29422402 83.93542187 79.7358311 88 83 C86.37523581 88.05262034 83.36595353 91.90822251 80.25 96.125 C79.38761719 97.30545898 79.38761719 97.30545898 78.5078125 98.50976562 C76.67792059 101.01101398 74.84000369 103.50618296 73 106 C71.82812226 107.59114381 70.65624722 109.18228962 69.484375 110.7734375 C67.73585592 113.14605998 65.98660765 115.51813257 64.2355957 117.88891602 C58.63683731 125.47410552 53.11671886 133.11476484 47.60888672 140.76611328 C44.36853805 145.26523169 41.11972298 149.75824119 37.87255859 154.25244141 C35.17401978 157.987945 32.47742047 161.7248148 29.78515625 165.46484375 C26.53176747 169.98261771 23.26846614 174.49312447 20 179 C19.38882324 179.84401367 18.77764648 180.68802734 18.14794922 181.55761719 C16.27032528 184.14627972 14.3860784 186.72999281 12.5 189.3125 C11.92451416 190.10712646 11.34902832 190.90175293 10.75610352 191.72045898 C7.74996126 195.82150986 4.71674434 199.52595351 1 203 C0.63874023 202.50822266 0.27748047 202.01644531 -0.09472656 201.50976562 C-7.85048927 190.956441 -15.64458804 180.43428621 -23.51904297 169.96923828 C-26.07879174 166.56552355 -28.63278911 163.15749656 -31.1875 159.75 C-32.19138052 158.41143903 -33.19528614 157.0728969 -34.19921875 155.734375 C-41.5 146 -41.5 146 -43.67578125 143.09765625 C-45.35905713 140.85423142 -47.04399196 138.61210896 -48.73046875 136.37109375 C-54.76737418 128.34313254 -60.74898018 120.2773597 -66.68676758 112.17578125 C-71.38334116 105.78734333 -76.19240185 99.49018051 -81.08959961 93.25415039 C-81.86122437 92.26016235 -81.86122437 92.26016235 -82.6484375 91.24609375 C-83.10395996 90.66529053 -83.55948242 90.0844873 -84.02880859 89.48608398 C-85 88 -85 88 -85 86 C-85.66 86 -86.32 86 -87 86 C-85.38901342 81.66592642 -82.03768402 79.06265827 -78.6875 76.0625 C-71.02108025 69.06795371 -63.69637641 61.76208094 -56.41088867 54.37329102 C-52.73069358 50.65734205 -49.06702433 46.98882147 -45.08984375 43.58984375 C-39.59162824 38.87619963 -34.58249328 33.65155336 -29.5 28.5 C-23.72703772 22.64859566 -17.97998396 16.8416286 -11.72460938 11.49755859 C-9.19222435 9.29857081 -6.85519018 6.95040115 -4.5 4.5625 C-3.6440625 3.69753906 -2.788125 2.83257812 -1.90625 1.94140625 C-0.96265625 0.98041016 -0.96265625 0.98041016 0 0 Z " fill="#FFFFFF" transform="translate(509,189)"/>
</svg>
